<?xml version='1.0' encoding='iso-8859-1'?>
<svg version="1.1" xmlns="http://www.w3.org/2000/svg" viewBox="0 0 8.64 8.64" xmlns:xlink="http://www.w3.org/1999/xlink" enable-background="new 0 0 8.64 8.64">
  <g>
    <g>
      <path fill="#020400" d="m.24,2.16h6.72v0.24c0,0.133 0.108,0.24 0.24,0.24 0.132,0 0.24-0.107 0.24-0.24v-0.24h0.96c0.132,0 0.24-0.107 0.24-0.24 0-0.133-0.107-0.24-0.24-0.24h-0.96v-0.24c0-0.133-0.108-0.24-0.24-0.24-0.132,0-0.24,0.107-0.24,0.24v0.24h-6.72c-0.132,0-0.24,0.107-0.24,0.24 0,0.132 0.108,0.24 0.24,0.24zm8.16,1.92h-6v-0.24c0-0.133-0.107-0.24-0.24-0.24-0.132,0-0.24,0.107-0.24,0.24v0.24h-1.68c-0.132,0-0.24,0.107-0.24,0.24s0.108,0.24 0.24,0.24h1.68v0.24c0,0.132 0.107,0.239 0.24,0.239 0.133,0 0.24-0.107 0.24-0.239v-0.24h6c0.132,0 0.24-0.107 0.24-0.24s-0.107-0.24-0.24-0.24zm0,2.4h-3.84v-0.24c0-0.133-0.107-0.24-0.24-0.24-0.132,0-0.24,0.107-0.24,0.24v0.24h-3.84c-0.132,0-0.24,0.108-0.24,0.24 0,0.132 0.108,0.24 0.24,0.24h3.84v0.24c0,0.133 0.107,0.24 0.24,0.24 0.132,0 0.24-0.107 0.24-0.24v-0.24h3.84c0.132,0 0.24-0.107 0.24-0.239 0-0.133-0.107-0.241-0.24-0.241z"/>
    </g>
  </g>
</svg>
